<mxfile host="app.diagrams.net" modified="2022-10-17T10:18:48.501Z" agent="5.0 (Macintosh; Intel Mac OS X 10_15_7) AppleWebKit/605.1.15 (KHTML, like Gecko) Version/16.0 Safari/605.1.15" etag="-1eEQ2Dyz2eku2uIs9V4" version="20.4.1" type="github">
  <diagram name="Page-1" id="c37626ed-c26b-45fb-9056-f9ebc6bb27b6">
    <mxGraphModel dx="1186" dy="713" grid="1" gridSize="10" guides="1" tooltips="1" connect="1" arrows="1" fold="1" page="1" pageScale="1" pageWidth="1100" pageHeight="850" background="none" math="0" shadow="0">
      <root>
        <mxCell id="0" />
        <mxCell id="1" parent="0" />
        <mxCell id="1c7a67bf8fd3230f-1" value="Spine 1" style="shape=mxgraph.cisco.misc.route_switch_processor;html=1;dashed=0;fillColor=#036897;strokeColor=#ffffff;strokeWidth=2;verticalLabelPosition=bottom;verticalAlign=top;rounded=0;shadow=0;comic=0;fontFamily=Verdana;fontSize=12;" parent="1" vertex="1">
          <mxGeometry x="280" y="120" width="64" height="86" as="geometry" />
        </mxCell>
        <mxCell id="1c7a67bf8fd3230f-2" value="Spine 2" style="shape=mxgraph.cisco.misc.route_switch_processor;html=1;dashed=0;fillColor=#036897;strokeColor=#ffffff;strokeWidth=2;verticalLabelPosition=bottom;verticalAlign=top;rounded=0;shadow=0;comic=0;fontFamily=Verdana;fontSize=12;" parent="1" vertex="1">
          <mxGeometry x="478" y="120" width="64" height="86" as="geometry" />
        </mxCell>
        <mxCell id="1c7a67bf8fd3230f-3" value="Spine 3" style="shape=mxgraph.cisco.misc.route_switch_processor;html=1;dashed=0;fillColor=#036897;strokeColor=#ffffff;strokeWidth=2;verticalLabelPosition=bottom;verticalAlign=top;rounded=0;shadow=0;comic=0;fontFamily=Verdana;fontSize=12;" parent="1" vertex="1">
          <mxGeometry x="760" y="120" width="64" height="86" as="geometry" />
        </mxCell>
        <mxCell id="r4_3W9p4BKCUyTpib6Uq-3" value="Leaf 1" style="shape=mxgraph.cisco.switches.workgroup_switch;sketch=0;html=1;pointerEvents=1;dashed=0;fillColor=#036897;strokeColor=#ffffff;strokeWidth=2;verticalLabelPosition=bottom;verticalAlign=top;align=center;outlineConnect=0;" vertex="1" parent="1">
          <mxGeometry x="120" y="390" width="101" height="50" as="geometry" />
        </mxCell>
        <mxCell id="r4_3W9p4BKCUyTpib6Uq-4" value="Leaf 2" style="shape=mxgraph.cisco.switches.workgroup_switch;sketch=0;html=1;pointerEvents=1;dashed=0;fillColor=#036897;strokeColor=#ffffff;strokeWidth=2;verticalLabelPosition=bottom;verticalAlign=top;align=center;outlineConnect=0;" vertex="1" parent="1">
          <mxGeometry x="340" y="390" width="101" height="50" as="geometry" />
        </mxCell>
        <mxCell id="r4_3W9p4BKCUyTpib6Uq-5" value="Leaf 3" style="shape=mxgraph.cisco.switches.workgroup_switch;sketch=0;html=1;pointerEvents=1;dashed=0;fillColor=#036897;strokeColor=#ffffff;strokeWidth=2;verticalLabelPosition=bottom;verticalAlign=top;align=center;outlineConnect=0;" vertex="1" parent="1">
          <mxGeometry x="550" y="390" width="101" height="50" as="geometry" />
        </mxCell>
        <mxCell id="r4_3W9p4BKCUyTpib6Uq-6" value="Leaf 4" style="shape=mxgraph.cisco.switches.workgroup_switch;sketch=0;html=1;pointerEvents=1;dashed=0;fillColor=#036897;strokeColor=#ffffff;strokeWidth=2;verticalLabelPosition=bottom;verticalAlign=top;align=center;outlineConnect=0;" vertex="1" parent="1">
          <mxGeometry x="741.5" y="390" width="101" height="50" as="geometry" />
        </mxCell>
        <mxCell id="r4_3W9p4BKCUyTpib6Uq-9" value="" style="endArrow=none;html=1;rounded=0;entryX=0;entryY=1;entryDx=0;entryDy=0;entryPerimeter=0;exitX=0.5;exitY=0;exitDx=0;exitDy=0;exitPerimeter=0;" edge="1" parent="1" source="r4_3W9p4BKCUyTpib6Uq-3" target="1c7a67bf8fd3230f-1">
          <mxGeometry width="50" height="50" relative="1" as="geometry">
            <mxPoint x="500" y="390" as="sourcePoint" />
            <mxPoint x="550" y="340" as="targetPoint" />
          </mxGeometry>
        </mxCell>
        <mxCell id="r4_3W9p4BKCUyTpib6Uq-10" value="" style="endArrow=none;html=1;rounded=0;entryX=0.5;entryY=1;entryDx=0;entryDy=0;entryPerimeter=0;" edge="1" parent="1" source="r4_3W9p4BKCUyTpib6Uq-4" target="1c7a67bf8fd3230f-2">
          <mxGeometry width="50" height="50" relative="1" as="geometry">
            <mxPoint x="260" y="380" as="sourcePoint" />
            <mxPoint x="290" y="216" as="targetPoint" />
          </mxGeometry>
        </mxCell>
        <mxCell id="r4_3W9p4BKCUyTpib6Uq-11" value="" style="endArrow=none;html=1;rounded=0;entryX=0.5;entryY=1;entryDx=0;entryDy=0;entryPerimeter=0;" edge="1" parent="1" source="r4_3W9p4BKCUyTpib6Uq-4" target="1c7a67bf8fd3230f-1">
          <mxGeometry width="50" height="50" relative="1" as="geometry">
            <mxPoint x="190.5" y="410" as="sourcePoint" />
            <mxPoint x="300" y="226" as="targetPoint" />
          </mxGeometry>
        </mxCell>
        <mxCell id="r4_3W9p4BKCUyTpib6Uq-12" value="" style="endArrow=none;html=1;rounded=0;entryX=0.95;entryY=0.96;entryDx=0;entryDy=0;entryPerimeter=0;exitX=0.5;exitY=0;exitDx=0;exitDy=0;exitPerimeter=0;" edge="1" parent="1" source="r4_3W9p4BKCUyTpib6Uq-5" target="1c7a67bf8fd3230f-1">
          <mxGeometry width="50" height="50" relative="1" as="geometry">
            <mxPoint x="200.5" y="420" as="sourcePoint" />
            <mxPoint x="310" y="236" as="targetPoint" />
          </mxGeometry>
        </mxCell>
        <mxCell id="r4_3W9p4BKCUyTpib6Uq-13" value="" style="endArrow=none;html=1;rounded=0;entryX=0.844;entryY=1;entryDx=0;entryDy=0;entryPerimeter=0;exitX=0.653;exitY=0.06;exitDx=0;exitDy=0;exitPerimeter=0;" edge="1" parent="1" source="r4_3W9p4BKCUyTpib6Uq-5" target="1c7a67bf8fd3230f-2">
          <mxGeometry width="50" height="50" relative="1" as="geometry">
            <mxPoint x="210.5" y="430" as="sourcePoint" />
            <mxPoint x="320" y="246" as="targetPoint" />
          </mxGeometry>
        </mxCell>
        <mxCell id="r4_3W9p4BKCUyTpib6Uq-14" value="" style="endArrow=none;html=1;rounded=0;entryX=0;entryY=1;entryDx=0;entryDy=0;entryPerimeter=0;exitX=1;exitY=0;exitDx=0;exitDy=0;exitPerimeter=0;" edge="1" parent="1" source="r4_3W9p4BKCUyTpib6Uq-3" target="1c7a67bf8fd3230f-2">
          <mxGeometry width="50" height="50" relative="1" as="geometry">
            <mxPoint x="220.5" y="440" as="sourcePoint" />
            <mxPoint x="330" y="256" as="targetPoint" />
          </mxGeometry>
        </mxCell>
      </root>
    </mxGraphModel>
  </diagram>
</mxfile>
